<svg width="64px" height="64px" viewBox="0 0 18 18" version="1.1" xmlns="http://www.w3.org/2000/svg" xmlns:xlink="http://www.w3.org/1999/xlink">
    <path d="M9,0 C4.02991071,0 0,4.134375 0,9.22901786 C0,13.3071429 2.57946429,16.7625 6.15535714,17.9839286 C6.21160714,17.9959821 6.25982143,18 6.30803571,18 C6.64151786,18 6.77008929,17.7549107 6.77008929,17.5419643 C6.77008929,17.3209821 6.76205357,16.7424107 6.75803571,15.9709821 C6.42053571,16.0473214 6.11919643,16.0794643 5.85,16.0794643 C4.11830357,16.0794643 3.72455357,14.7334821 3.72455357,14.7334821 C3.31473214,13.66875 2.72410714,13.3834821 2.72410714,13.3834821 C1.940625,12.8330357 2.72008929,12.8169643 2.78035714,12.8169643 L2.784375,12.8169643 C3.68839286,12.8973214 4.1625,13.7732143 4.1625,13.7732143 C4.6125,14.5607143 5.21517857,14.7816964 5.75357143,14.7816964 C6.17544643,14.7816964 6.55714286,14.6450893 6.78214286,14.540625 C6.8625,13.9459821 7.09553571,13.5401786 7.35267857,13.3071429 C5.35580357,13.0741071 3.25446429,12.2825893 3.25446429,8.746875 C3.25446429,7.73839286 3.60401786,6.91473214 4.17857143,6.271875 C4.08616071,6.03883929 3.77678571,5.09866071 4.26696429,3.82901786 C4.26696429,3.82901786 4.33125,3.80892857 4.46785714,3.80892857 C4.79330357,3.80892857 5.52857143,3.93348214 6.74196429,4.77723214 C7.46116071,4.57232143 8.22857143,4.471875 8.99598214,4.46785714 C9.759375,4.471875 10.5308036,4.57232143 11.25,4.77723214 C12.4633929,3.93348214 13.1986607,3.80892857 13.5241071,3.80892857 C13.6607143,3.80892857 13.725,3.82901786 13.725,3.82901786 C14.2151786,5.09866071 13.9058036,6.03883929 13.8133929,6.271875 C14.3879464,6.91875 14.7375,7.74241071 14.7375,8.746875 C14.7375,12.290625 12.6321429,13.0700893 10.6272321,13.2991071 C10.9486607,13.584375 11.2379464,14.146875 11.2379464,15.0066964 C11.2379464,16.2401786 11.2258929,17.2366071 11.2258929,17.5379464 C11.2258929,17.7549107 11.3504464,18 11.6839286,18 C11.7321429,18 11.7883929,17.9959821 11.8446429,17.9839286 C15.4245536,16.7625 18,13.303125 18,9.22901786 C18,4.134375 13.9700893,0 9,0 Z" stroke="none" fill="#1E2327" fill-rule="nonzero"></path>
</svg>
