<svg width="64px" height="64px" viewBox="0 0 480 399" version="1.1" xmlns="http://www.w3.org/2000/svg" xmlns:xlink="http://www.w3.org/1999/xlink">
    <g stroke="none" stroke-width="1" fill="none" fill-rule="evenodd">
        <path d="M310.929825,14.334767 C310.929825,6.60622504 316.862164,2.36704916 324.170617,4.8630724 L479,57.7412587 L478.999999,389.143513 C478.999999,396.872569 473.335844,400.437459 466.367419,397.114817 L310.929825,323.000006 L310.929825,14.334767 Z" fill="#32FC8D"></path>
        <path d="M313.562569,6.57805457 C315.171106,3.93766305 318.851022,2.61504484 321.767189,3.61884294 L479,57.7412578 L310.929826,323.475524 L218.491228,162.636364 L313.562569,6.57805457 Z" fill="#0BE370"></path>
        <polygon fill="#14C767" points="168.070175 63.3356643 310.929825 323.475524 168.070175 253.545455"></polygon>
        <path d="M0,10.4889166 C0,2.75525777 5.82194429,-1.18863151 12.9960504,1.67694719 L168.070175,63.6187557 L168.070175,385.287362 C168.070175,393.01699 162.430121,396.560925 155.454794,393.194292 L12.615381,324.25301 C5.64809844,320.890259 0,311.900721 0,304.161182 L0,10.4889166 Z" fill="#00AB6C"></path>
    </g>
</svg>
